<?xml version="1.0" encoding="UTF-8"?>
<svg id="Ebene_1" data-name="Ebene 1" xmlns="http://www.w3.org/2000/svg" viewBox="0 0 308.61 308.61">
  <defs>
    <style>
      .cls-1 {
        fill: #1d1d1b;
      }

      .cls-2 {
        fill: #d72226;
      }
    </style>
  </defs>
  <g>
    <polygon class="cls-2" points="215.87 185.72 253.75 185.72 253.75 134.48 215.87 158.79 215.87 185.72"/>
    <polygon class="cls-2" points="56.69 185.72 94.56 185.72 94.56 158.79 56.69 134.48 56.69 185.72"/>
    <polygon class="cls-2" points="253.74 85.72 253.74 123.6 160.66 184.24 160.66 146.42 253.74 85.72"/>
    <polygon class="cls-2" points="149.77 146.41 149.77 184.22 56.69 123.59 56.69 85.72 149.77 146.41"/>
    <polygon class="cls-2" points="253.74 74.84 155.21 139.08 155.21 127.88 236.55 74.84 253.74 74.84"/>
    <polygon class="cls-2" points="155.21 127.88 155.21 139.08 56.69 74.84 73.88 74.84 155.21 127.88"/>
  </g>
  <g>
    <g>
      <path class="cls-1" d="M82.01,228.82l-.04-16.7-8.19,13.76h-2.9l-8.15-13.4v16.34h-6.04v-27.83h5.33l10.42,17.29,10.26-17.29h5.29l.08,27.83h-6.04Z"/>
      <path class="cls-1" d="M112.79,222.85h-12.92l-2.46,5.96h-6.6l12.4-27.83h6.36l12.44,27.83h-6.76l-2.46-5.96ZM110.76,217.96l-4.41-10.65-4.41,10.65h8.83Z"/>
      <path class="cls-1" d="M124.76,200.99h6.44v22.58h11.56v5.25h-18v-27.83Z"/>
      <path class="cls-1" d="M146.44,200.99h6.44v22.58h9.03l4.92,5.25h-20.39v-27.83Z"/>
      <path class="cls-1" d="M164.25,214.9c0-8.27,6.44-14.39,15.23-14.39s15.23,6.08,15.23,14.39-6.48,14.39-15.23,14.39-15.23-6.12-15.23-14.39ZM188.18,214.9c0-5.29-3.74-8.91-8.71-8.91s-8.71,3.62-8.71,8.91,3.74,8.9,8.71,8.9,8.71-3.62,8.71-8.9Z"/>
      <path class="cls-1" d="M223.6,200.99v27.83h-5.29l-13.87-16.9v16.9h-6.36v-27.83h5.33l13.83,16.9v-16.9h6.36Z"/>
      <path class="cls-1" d="M253.75,200.99v27.83h-5.29l-13.87-16.9v16.9h-6.36v-27.83h5.33l13.83,16.9v-16.9h6.36Z"/>
    </g>
    <g>
      <path class="cls-2" d="M68.11,241.08h5.76c4.39,0,7.38,2.77,7.38,6.83s-2.99,6.83-7.38,6.83h-5.76v-13.66ZM73.75,253.05c3.38,0,5.54-2.07,5.54-5.13s-2.17-5.13-5.54-5.13h-3.69v10.27h3.69Z"/>
      <path class="cls-2" d="M94.76,251.33h-7.26l-1.5,3.42h-2.01l6.19-13.66h1.93l6.21,13.66h-2.05l-1.5-3.42ZM94.08,249.77l-2.95-6.7-2.95,6.7h5.89Z"/>
      <path class="cls-2" d="M101.05,247.91c0-4.04,3.08-6.99,7.24-6.99,2.11,0,3.94.72,5.19,2.13l-1.27,1.23c-1.05-1.11-2.34-1.62-3.85-1.62-3.08,0-5.37,2.22-5.37,5.25s2.28,5.25,5.37,5.25c1.5,0,2.79-.53,3.85-1.64l1.27,1.23c-1.25,1.41-3.08,2.15-5.21,2.15-4.14,0-7.22-2.95-7.22-6.99Z"/>
      <path class="cls-2" d="M130.76,241.08v13.66h-1.95v-6.09h-7.85v6.09h-1.95v-13.66h1.95v5.88h7.85v-5.88h1.95Z"/>
      <path class="cls-2" d="M140.31,242.78h-4.68v-1.7h11.3v1.7h-4.68v11.97h-1.93v-11.97Z"/>
      <path class="cls-2" d="M161.71,253.05v1.7h-9.92v-13.66h9.64v1.7h-7.69v4.2h6.85v1.66h-6.85v4.41h7.96Z"/>
      <path class="cls-2" d="M166.43,247.91c0-4.04,3.08-6.99,7.24-6.99,2.11,0,3.94.72,5.19,2.13l-1.27,1.23c-1.05-1.11-2.34-1.62-3.85-1.62-3.08,0-5.37,2.22-5.37,5.25s2.28,5.25,5.37,5.25c1.5,0,2.79-.53,3.85-1.64l1.27,1.23c-1.25,1.41-3.08,2.15-5.21,2.15-4.14,0-7.22-2.95-7.22-6.99Z"/>
      <path class="cls-2" d="M196.15,241.08v13.66h-1.95v-6.09h-7.85v6.09h-1.95v-13.66h1.95v5.88h7.85v-5.88h1.95Z"/>
      <path class="cls-2" d="M214.73,241.08v13.66h-1.6l-8.2-10.19v10.19h-1.95v-13.66h1.6l8.2,10.19v-10.19h1.95Z"/>
      <path class="cls-2" d="M221.57,241.08h1.95v13.66h-1.95v-13.66Z"/>
      <path class="cls-2" d="M234.8,248.67l-2.5,2.54v3.53h-1.95v-13.66h1.95v7.63l7.42-7.63h2.22l-5.84,6.15,6.21,7.52h-2.28l-5.23-6.07Z"/>
    </g>
  </g>
</svg>