<?xml version="1.0" encoding="UTF-8"?>
<svg id="Ebene_1" data-name="Ebene 1" xmlns="http://www.w3.org/2000/svg" viewBox="0 0 548.87 308.61">
  <defs>
    <style>
      .cls-1 {
        fill: #d72226;
      }

      .cls-2 {
        fill: #282626;
      }
    </style>
  </defs>
  <g>
    <polygon class="cls-1" points="316.55 143.04 342.93 143.04 342.93 107.36 316.55 124.29 316.55 143.04"/>
    <polygon class="cls-1" points="205.71 143.04 232.09 143.04 232.09 124.29 205.71 107.36 205.71 143.04"/>
    <polygon class="cls-1" points="342.93 73.41 342.93 99.79 278.11 142.01 278.11 115.68 342.93 73.41"/>
    <polygon class="cls-1" points="270.53 115.67 270.53 142 205.71 99.78 205.71 73.41 270.53 115.67"/>
    <polygon class="cls-1" points="342.93 65.83 274.32 110.57 274.32 102.76 330.95 65.83 342.93 65.83"/>
    <polygon class="cls-1" points="274.32 102.76 274.32 110.57 205.71 65.83 217.69 65.83 274.32 102.76"/>
  </g>
  <g>
    <path class="cls-2" d="M167.94,203.69l-.06-24.26-11.9,19.99h-4.22l-11.84-19.47v23.74h-8.78v-40.44h7.74l15.14,25.13,14.91-25.13h7.68l.12,40.44h-8.78Z"/>
    <path class="cls-2" d="M212.67,195.03h-18.78l-3.58,8.67h-9.59l18.03-40.44h9.24l18.08,40.44h-9.82l-3.58-8.67ZM209.72,187.92l-6.41-15.48-6.41,15.48h12.82Z"/>
    <path class="cls-2" d="M230.07,163.26h9.36v32.81h16.8v7.63h-26.15v-40.44Z"/>
    <path class="cls-2" d="M261.57,163.25h9.36v32.81h13.13l7.15,7.63h-29.64v-40.44Z"/>
    <path class="cls-2" d="M287.45,183.47c0-12.02,9.36-20.91,22.13-20.91s22.13,8.84,22.13,20.91-9.42,20.91-22.13,20.91-22.13-8.9-22.13-20.91ZM322.23,183.47c0-7.68-5.43-12.94-12.65-12.94s-12.65,5.26-12.65,12.94,5.43,12.94,12.65,12.94,12.65-5.26,12.65-12.94Z"/>
    <path class="cls-2" d="M373.7,163.25v40.44h-7.68l-20.16-24.55v24.55h-9.24v-40.44h7.74l20.1,24.55v-24.55h9.24Z"/>
    <path class="cls-2" d="M417.51,163.25v40.44h-7.68l-20.16-24.55v24.55h-9.24v-40.44h7.74l20.1,24.55v-24.55h9.24Z"/>
  </g>
  <g>
    <path class="cls-1" d="M147.74,222.69h8.37c6.38,0,10.72,4.03,10.72,9.93s-4.34,9.93-10.72,9.93h-8.37v-19.86ZM155.94,240.08c4.91,0,8.06-3.01,8.06-7.46s-3.15-7.46-8.06-7.46h-5.36v14.92h5.36Z"/>
    <path class="cls-1" d="M186.47,237.59h-10.55l-2.18,4.96h-2.92l8.99-19.86h2.81l9.02,19.86h-2.98l-2.18-4.96ZM185.48,235.32l-4.28-9.73-4.28,9.73h8.57Z"/>
    <path class="cls-1" d="M195.61,232.62c0-5.87,4.48-10.16,10.52-10.16,3.06,0,5.73,1.05,7.55,3.09l-1.84,1.79c-1.53-1.62-3.4-2.35-5.59-2.35-4.48,0-7.8,3.23-7.8,7.63s3.32,7.63,7.8,7.63c2.18,0,4.06-.77,5.59-2.38l1.84,1.79c-1.82,2.04-4.48,3.12-7.57,3.12-6.01,0-10.5-4.28-10.5-10.15Z"/>
    <path class="cls-1" d="M238.79,222.69v19.86h-2.84v-8.85h-11.4v8.85h-2.84v-19.86h2.84v8.54h11.4v-8.54h2.84Z"/>
    <path class="cls-1" d="M252.66,225.16h-6.81v-2.47h16.42v2.47h-6.81v17.39h-2.81v-17.39Z"/>
    <path class="cls-1" d="M283.76,240.08v2.47h-14.41v-19.86h14.01v2.47h-11.18v6.1h9.96v2.41h-9.96v6.41h11.57Z"/>
    <path class="cls-1" d="M290.62,232.62c0-5.87,4.48-10.16,10.52-10.16,3.06,0,5.73,1.05,7.55,3.09l-1.84,1.79c-1.53-1.62-3.4-2.35-5.59-2.35-4.48,0-7.8,3.23-7.8,7.63s3.32,7.63,7.8,7.63c2.18,0,4.06-.77,5.59-2.38l1.84,1.79c-1.82,2.04-4.48,3.12-7.57,3.12-6.01,0-10.5-4.28-10.5-10.15Z"/>
    <path class="cls-1" d="M333.8,222.69v19.86h-2.84v-8.85h-11.4v8.85h-2.84v-19.86h2.84v8.54h11.4v-8.54h2.84Z"/>
    <path class="cls-1" d="M360.81,222.69v19.86h-2.33l-11.91-14.81v14.81h-2.84v-19.86h2.33l11.91,14.81v-14.81h2.84Z"/>
    <path class="cls-1" d="M370.74,222.69h2.84v19.86h-2.84v-19.86Z"/>
    <path class="cls-1" d="M389.98,233.73l-3.63,3.69v5.13h-2.84v-19.86h2.84v11.09l10.78-11.09h3.23l-8.48,8.94,9.02,10.92h-3.32l-7.6-8.82Z"/>
  </g>
</svg>