<?xml version="1.0" encoding="UTF-8"?>
<svg id="Ebene_1" data-name="Ebene 1" xmlns="http://www.w3.org/2000/svg" viewBox="0 0 513.91 132.05">
  <defs>
    <style>
      .cls-1 {
        fill: #1d1d1b;
      }

      .cls-2 {
        fill: #d72226;
      }
    </style>
  </defs>
  <g>
    <polygon class="cls-2" points="140.39 104.49 164.95 104.49 164.95 71.26 140.39 87.02 140.39 104.49"/>
    <polygon class="cls-2" points="37.16 104.49 61.72 104.49 61.72 87.02 37.16 71.26 37.16 104.49"/>
    <polygon class="cls-2" points="164.95 39.64 164.95 64.21 104.58 103.53 104.58 79 164.95 39.64"/>
    <polygon class="cls-2" points="97.52 79 97.52 103.52 37.16 64.2 37.16 39.64 97.52 79"/>
    <polygon class="cls-2" points="164.95 32.58 101.05 74.25 101.05 66.98 153.8 32.58 164.95 32.58"/>
    <polygon class="cls-2" points="101.05 66.98 101.05 74.25 37.16 32.58 48.31 32.58 101.05 66.98"/>
  </g>
  <g>
    <path class="cls-1" d="M240.2,71.98l-.06-23.64-11.59,19.47h-4.11l-11.54-18.97v23.13h-8.55v-39.4h7.54l14.75,24.48,14.52-24.48h7.49l.11,39.4h-8.56Z"/>
    <path class="cls-1" d="M283.77,63.53h-18.29l-3.49,8.44h-9.34l17.56-39.4h9.01l17.62,39.4h-9.57l-3.49-8.44ZM280.9,56.61l-6.25-15.08-6.25,15.08h12.49Z"/>
    <path class="cls-1" d="M300.72,32.58h9.12v31.97h16.36v7.43h-25.48v-39.4Z"/>
    <path class="cls-1" d="M331.41,32.58h9.12v31.97h12.79l6.97,7.43h-28.87v-39.4Z"/>
    <path class="cls-1" d="M356.62,52.28c0-11.71,9.12-20.37,21.56-20.37s21.56,8.61,21.56,20.37-9.17,20.37-21.56,20.37-21.56-8.67-21.56-20.37ZM390.51,52.28c0-7.49-5.29-12.61-12.33-12.61s-12.33,5.12-12.33,12.61,5.29,12.61,12.33,12.61,12.33-5.12,12.33-12.61Z"/>
    <path class="cls-1" d="M440.65,32.58v39.4h-7.49l-19.64-23.92v23.92h-9v-39.4h7.54l19.59,23.92v-23.92h9.01Z"/>
    <path class="cls-1" d="M483.33,32.58v39.4h-7.49l-19.64-23.92v23.92h-9v-39.4h7.54l19.59,23.92v-23.92h9.01Z"/>
  </g>
  <g>
    <path class="cls-2" d="M204.34,85.09h8.15c6.22,0,10.45,3.92,10.45,9.67s-4.23,9.67-10.45,9.67h-8.15v-19.34ZM212.33,102.03c4.78,0,7.85-2.93,7.85-7.27s-3.07-7.27-7.85-7.27h-5.22v14.54h5.22Z"/>
    <path class="cls-2" d="M242.07,99.6h-10.28l-2.13,4.84h-2.85l8.76-19.34h2.74l8.79,19.34h-2.9l-2.13-4.84ZM241.11,97.39l-4.17-9.48-4.17,9.48h8.35Z"/>
    <path class="cls-2" d="M250.98,94.76c0-5.72,4.37-9.89,10.25-9.89,2.98,0,5.58,1.02,7.35,3.01l-1.8,1.74c-1.49-1.58-3.32-2.29-5.44-2.29-4.37,0-7.6,3.15-7.6,7.43s3.23,7.43,7.6,7.43c2.13,0,3.95-.75,5.44-2.32l1.8,1.74c-1.77,1.99-4.37,3.04-7.38,3.04-5.86,0-10.23-4.17-10.23-9.89Z"/>
    <path class="cls-2" d="M293.04,85.09v19.34h-2.76v-8.62h-11.11v8.62h-2.76v-19.34h2.76v8.32h11.11v-8.32h2.76Z"/>
    <path class="cls-2" d="M306.56,87.5h-6.63v-2.4h16v2.4h-6.63v16.94h-2.74v-16.94Z"/>
    <path class="cls-2" d="M336.85,102.03v2.4h-14.04v-19.34h13.65v2.4h-10.89v5.94h9.7v2.35h-9.7v6.25h11.28Z"/>
    <path class="cls-2" d="M343.54,94.76c0-5.72,4.37-9.89,10.25-9.89,2.98,0,5.58,1.02,7.35,3.01l-1.8,1.74c-1.49-1.58-3.32-2.29-5.44-2.29-4.37,0-7.6,3.15-7.6,7.43s3.23,7.43,7.6,7.43c2.13,0,3.95-.75,5.44-2.32l1.8,1.74c-1.77,1.99-4.37,3.04-7.38,3.04-5.86,0-10.23-4.17-10.23-9.89Z"/>
    <path class="cls-2" d="M385.6,85.09v19.34h-2.76v-8.62h-11.11v8.62h-2.76v-19.34h2.76v8.32h11.11v-8.32h2.76Z"/>
    <path class="cls-2" d="M411.92,85.09v19.34h-2.27l-11.61-14.43v14.43h-2.76v-19.34h2.27l11.61,14.43v-14.43h2.76Z"/>
    <path class="cls-2" d="M421.59,85.09h2.76v19.34h-2.76v-19.34Z"/>
    <path class="cls-2" d="M440.33,95.84l-3.54,3.59v5h-2.76v-19.34h2.76v10.81l10.5-10.81h3.15l-8.26,8.7,8.79,10.64h-3.23l-7.41-8.59Z"/>
  </g>
</svg>