<?xml version="1.0" encoding="UTF-8"?>
<svg id="Ebene_1" xmlns="http://www.w3.org/2000/svg" version="1.1" viewBox="0 0 566.9 141.7">
  <!-- Generator: Adobe Illustrator 29.1.0, SVG Export Plug-In . SVG Version: 2.1.0 Build 142)  -->
  <defs>
    <style>
      .st0 {
        fill: #d72427;
      }

      .st1 {
        fill: #1e1e1c;
      }
    </style>
  </defs>
  <g>
    <polygon class="st0" points="154.5 113.9 181.6 113.9 181.6 77.2 154.5 94.6 154.5 113.9"/>
    <polygon class="st0" points="40.5 113.9 67.6 113.9 67.6 94.6 40.5 77.2 40.5 113.9"/>
    <polygon class="st0" points="181.6 42.3 181.6 69.4 114.9 112.9 114.9 85.8 181.6 42.3"/>
    <polygon class="st0" points="107.1 85.8 107.1 112.9 40.5 69.4 40.5 42.3 107.1 85.8"/>
    <polygon class="st0" points="181.6 34.5 111 80.5 111 72.5 169.3 34.5 181.6 34.5"/>
    <polygon class="st0" points="111 72.5 111 80.5 40.5 34.5 52.8 34.5 111 72.5"/>
  </g>
  <g>
    <path class="st1" d="M264.7,78v-26.1c0,0-12.9,21.5-12.9,21.5h-4.5l-12.7-20.9v25.5h-9.4v-43.5h8.3l16.3,27,16-27h8.3v43.5c.1,0-9.3,0-9.3,0Z"/>
    <path class="st1" d="M312.8,68.7h-20.2l-3.9,9.3h-10.3l19.4-43.5h9.9l19.5,43.5h-10.6l-3.9-9.3ZM309.6,61.1l-6.9-16.7-6.9,16.7h13.8Z"/>
    <path class="st1" d="M331.5,34.5h10.1v35.3h18.1v8.2h-28.1v-43.5Z"/>
    <path class="st1" d="M365.4,34.5h10.1v35.3h14.1l7.7,8.2h-31.9v-43.5Z"/>
    <path class="st1" d="M393.2,56.3c0-12.9,10.1-22.5,23.8-22.5s23.8,9.5,23.8,22.5-10.1,22.5-23.8,22.5-23.8-9.6-23.8-22.5ZM430.7,56.3c0-8.3-5.8-13.9-13.6-13.9s-13.6,5.7-13.6,13.9,5.8,13.9,13.6,13.9,13.6-5.7,13.6-13.9Z"/>
    <path class="st1" d="M486,34.5v43.5h-8.3l-21.7-26.4v26.4h-9.9v-43.5h8.3l21.6,26.4v-26.4h9.9Z"/>
    <path class="st1" d="M533.2,34.5v43.5h-8.3l-21.7-26.4v26.4h-9.9v-43.5h8.3l21.6,26.4v-26.4h9.9Z"/>
  </g>
  <g>
    <path class="st0" d="M225.1,92.5h9c6.9,0,11.5,4.3,11.5,10.7s-4.7,10.7-11.5,10.7h-9v-21.4ZM233.9,111.2c5.3,0,8.7-3.2,8.7-8s-3.4-8-8.7-8h-5.8v16.1h5.8Z"/>
    <path class="st0" d="M266.8,108.5h-11.4l-2.3,5.3h-3.1l9.7-21.4h3l9.7,21.4h-3.2l-2.4-5.3ZM265.7,106.1l-4.6-10.5-4.6,10.5h9.2Z"/>
    <path class="st0" d="M276.6,103.2c0-6.3,4.8-10.9,11.3-10.9s6.2,1.1,8.1,3.3l-2,1.9c-1.6-1.7-3.7-2.5-6-2.5-4.8,0-8.4,3.5-8.4,8.2s3.6,8.2,8.4,8.2,4.4-.8,6-2.6l2,1.9c-2,2.2-4.8,3.4-8.1,3.4-6.5,0-11.3-4.6-11.3-10.9Z"/>
    <path class="st0" d="M323,92.5v21.4h-3.1v-9.5h-12.3v9.5h-3.1v-21.4h3.1v9.2h12.3v-9.2h3.1Z"/>
    <path class="st0" d="M338,95.2h-7.3v-2.7h17.7v2.7h-7.3v18.7h-3v-18.7Z"/>
    <path class="st0" d="M371.4,111.2v2.7h-15.5v-21.4h15.1v2.7h-12v6.6h10.7v2.6h-10.7v6.9h12.5Z"/>
    <path class="st0" d="M378.8,103.2c0-6.3,4.8-10.9,11.3-10.9s6.2,1.1,8.1,3.3l-2,1.9c-1.6-1.7-3.7-2.5-6-2.5-4.8,0-8.4,3.5-8.4,8.2s3.6,8.2,8.4,8.2,4.4-.8,6-2.6l2,1.9c-2,2.2-4.8,3.4-8.1,3.4-6.5,0-11.3-4.6-11.3-10.9Z"/>
    <path class="st0" d="M425.2,92.5v21.4h-3.1v-9.5h-12.3v9.5h-3.1v-21.4h3.1v9.2h12.3v-9.2h3.1Z"/>
    <path class="st0" d="M454.3,92.5v21.4h-2.5l-12.8-15.9v15.9h-3.1v-21.4h2.5l12.8,15.9v-15.9h3.1Z"/>
    <path class="st0" d="M465,92.5h3.1v21.4h-3.1v-21.4Z"/>
    <path class="st0" d="M485.7,104.4l-3.9,4v5.5h-3.1v-21.4h3.1v11.9l11.6-11.9h3.5l-9.1,9.6,9.7,11.7h-3.6l-8.2-9.5Z"/>
  </g>
</svg>