<?xml version="1.0" encoding="UTF-8"?>
<svg id="Ebene_1" xmlns="http://www.w3.org/2000/svg" version="1.1" viewBox="0 0 547.9 307.6">
  <!-- Generator: Adobe Illustrator 29.1.0, SVG Export Plug-In . SVG Version: 2.1.0 Build 142)  -->
  <defs>
    <style>
      .st0 {
        fill: #d72226;
      }

      .st1 {
        fill: #f7f7f7;
      }
    </style>
  </defs>
  <g>
    <polygon class="st0" points="312.5 133 336.7 133 336.7 100.3 312.5 115.8 312.5 133"/>
    <polygon class="st0" points="210.9 133 235.1 133 235.1 115.8 210.9 100.3 210.9 133"/>
    <polygon class="st0" points="336.7 69.2 336.7 93.4 277.3 132.1 277.3 107.9 336.7 69.2"/>
    <polygon class="st0" points="270.3 107.9 270.3 132 210.9 93.4 210.9 69.2 270.3 107.9"/>
    <polygon class="st0" points="336.7 62.2 273.8 103.2 273.8 96.1 325.7 62.2 336.7 62.2"/>
    <polygon class="st0" points="273.8 96.1 273.8 103.2 210.9 62.2 221.9 62.2 273.8 96.1"/>
  </g>
  <g>
    <path class="st1" d="M176.3,188.6v-22.2c0,0-11,18.3-11,18.3h-3.9l-10.9-17.8v21.8h-8v-37.1h7.1l13.9,23,13.7-23h7v37.1c.1,0-7.9,0-7.9,0Z"/>
    <path class="st1" d="M217.3,180.6h-17.2l-3.3,7.9h-8.8l16.5-37.1h8.5l16.6,37.1h-9l-3.3-7.9ZM214.6,174.1l-5.9-14.2-5.9,14.2h11.8Z"/>
    <path class="st1" d="M233.3,151.5h8.6v30.1h15.4v7h-24v-37.1Z"/>
    <path class="st1" d="M262.1,151.5h8.6v30.1h12l6.6,7h-27.2v-37.1Z"/>
    <path class="st1" d="M285.9,170.1c0-11,8.6-19.2,20.3-19.2s20.3,8.1,20.3,19.2-8.6,19.2-20.3,19.2-20.3-8.2-20.3-19.2ZM317.7,170.1c0-7-5-11.9-11.6-11.9s-11.6,4.8-11.6,11.9,5,11.9,11.6,11.9,11.6-4.8,11.6-11.9Z"/>
    <path class="st1" d="M364.9,151.5v37.1h-7l-18.5-22.5v22.5h-8.5v-37.1h7.1l18.4,22.5v-22.5h8.5Z"/>
    <path class="st1" d="M405,151.5v37.1h-7l-18.5-22.5v22.5h-8.5v-37.1h7.1l18.4,22.5v-22.5h8.5Z"/>
  </g>
  <g>
    <path class="st0" d="M157.8,206h7.7c5.8,0,9.8,3.7,9.8,9.1s-4,9.1-9.8,9.1h-7.7v-18.2ZM165.3,221.9c4.5,0,7.4-2.8,7.4-6.8s-2.9-6.8-7.4-6.8h-4.9v13.7h4.9Z"/>
    <path class="st0" d="M193.3,219.6h-9.7l-2,4.5h-2.7l8.2-18.2h2.6l8.3,18.2h-2.7l-2-4.5ZM192.4,217.6l-3.9-8.9-3.9,8.9h7.9Z"/>
    <path class="st0" d="M201.7,215.1c0-5.4,4.1-9.3,9.6-9.3s5.3,1,6.9,2.8l-1.7,1.6c-1.4-1.5-3.1-2.2-5.1-2.2-4.1,0-7.1,3-7.1,7s3,7,7.1,7,3.7-.7,5.1-2.2l1.7,1.6c-1.7,1.9-4.1,2.9-6.9,2.9-5.5,0-9.6-3.9-9.6-9.3Z"/>
    <path class="st0" d="M241.3,206v18.2h-2.6v-8.1h-10.4v8.1h-2.6v-18.2h2.6v7.8h10.4v-7.8h2.6Z"/>
    <path class="st0" d="M254,208.3h-6.2v-2.3h15.1v2.3h-6.2v15.9h-2.6v-15.9Z"/>
    <path class="st0" d="M282.5,221.9v2.3h-13.2v-18.2h12.8v2.3h-10.2v5.6h9.1v2.2h-9.1v5.9h10.6Z"/>
    <path class="st0" d="M288.8,215.1c0-5.4,4.1-9.3,9.6-9.3s5.3,1,6.9,2.8l-1.7,1.6c-1.4-1.5-3.1-2.2-5.1-2.2-4.1,0-7.1,3-7.1,7s3,7,7.1,7,3.7-.7,5.1-2.2l1.7,1.6c-1.7,1.9-4.1,2.9-6.9,2.9-5.5,0-9.6-3.9-9.6-9.3Z"/>
    <path class="st0" d="M328.3,206v18.2h-2.6v-8.1h-10.4v8.1h-2.6v-18.2h2.6v7.8h10.4v-7.8h2.6Z"/>
    <path class="st0" d="M353.1,206v18.2h-2.1l-10.9-13.6v13.6h-2.6v-18.2h2.1l10.9,13.6v-13.6h2.6Z"/>
    <path class="st0" d="M362.2,206h2.6v18.2h-2.6v-18.2Z"/>
    <path class="st0" d="M379.8,216.1l-3.3,3.4v4.7h-2.6v-18.2h2.6v10.2l9.9-10.2h3l-7.8,8.2,8.3,10h-3l-7-8.1Z"/>
  </g>
</svg>