<?xml version="1.0" encoding="UTF-8"?>
<svg id="Ebene_1" xmlns="http://www.w3.org/2000/svg" version="1.1" viewBox="0 0 392.3 131.1">
  <!-- Generator: Adobe Illustrator 29.1.0, SVG Export Plug-In . SVG Version: 2.1.0 Build 142)  -->
  <defs>
    <style>
      .st0 {
        fill: #d72226;
      }

      .st1 {
        fill: #f7f7f7;
      }
    </style>
  </defs>
  <g>
    <path class="st0" d="M98.6,69v-22.2c0,0-11,18.3-11,18.3h-3.9l-10.9-17.8v21.8h-8V31.9h7.1l13.9,23,13.7-23h7v37.1c.1,0-7.9,0-7.9,0Z"/>
    <path class="st0" d="M139.6,61.1h-17.2l-3.3,7.9h-8.8l16.5-37.1h8.5l16.6,37.1h-9l-3.3-7.9ZM136.9,54.5l-5.9-14.2-5.9,14.2h11.8Z"/>
    <path class="st0" d="M155.6,31.9h8.6v30.1h15.4v7h-24V31.9Z"/>
    <path class="st0" d="M184.4,31.9h8.6v30.1h12l6.6,7h-27.2V31.9Z"/>
    <path class="st0" d="M208.2,50.5c0-11,8.6-19.2,20.3-19.2s20.3,8.1,20.3,19.2-8.6,19.2-20.3,19.2-20.3-8.2-20.3-19.2ZM240,50.5c0-7-5-11.9-11.6-11.9s-11.6,4.8-11.6,11.9,5,11.9,11.6,11.9,11.6-4.8,11.6-11.9Z"/>
    <path class="st0" d="M287.2,31.9v37.1h-7l-18.5-22.5v22.5h-8.5V31.9h7.1l18.4,22.5v-22.5h8.5Z"/>
    <path class="st0" d="M327.3,31.9v37.1h-7l-18.5-22.5v22.5h-8.5V31.9h7.1l18.4,22.5v-22.5h8.5Z"/>
  </g>
  <g>
    <path class="st1" d="M80.1,81.3h7.7c5.8,0,9.8,3.7,9.8,9.1s-4,9.1-9.8,9.1h-7.7v-18.2ZM87.6,97.3c4.5,0,7.4-2.8,7.4-6.8s-2.9-6.8-7.4-6.8h-4.9v13.7h4.9Z"/>
    <path class="st1" d="M115.6,95h-9.7l-2,4.5h-2.7l8.2-18.2h2.6l8.3,18.2h-2.7l-2-4.5ZM114.7,92.9l-3.9-8.9-3.9,8.9h7.9Z"/>
    <path class="st1" d="M124,90.4c0-5.4,4.1-9.3,9.6-9.3s5.3,1,6.9,2.8l-1.7,1.6c-1.4-1.5-3.1-2.2-5.1-2.2-4.1,0-7.1,3-7.1,7s3,7,7.1,7,3.7-.7,5.1-2.2l1.7,1.6c-1.7,1.9-4.1,2.9-6.9,2.9-5.5,0-9.6-3.9-9.6-9.3Z"/>
    <path class="st1" d="M163.6,81.3v18.2h-2.6v-8.1h-10.4v8.1h-2.6v-18.2h2.6v7.8h10.4v-7.8h2.6Z"/>
    <path class="st1" d="M176.3,83.6h-6.2v-2.3h15.1v2.3h-6.2v15.9h-2.6v-15.9Z"/>
    <path class="st1" d="M204.8,97.3v2.3h-13.2v-18.2h12.8v2.3h-10.2v5.6h9.1v2.2h-9.1v5.9h10.6Z"/>
    <path class="st1" d="M211.1,90.4c0-5.4,4.1-9.3,9.6-9.3s5.3,1,6.9,2.8l-1.7,1.6c-1.4-1.5-3.1-2.2-5.1-2.2-4.1,0-7.1,3-7.1,7s3,7,7.1,7,3.7-.7,5.1-2.2l1.7,1.6c-1.7,1.9-4.1,2.9-6.9,2.9-5.5,0-9.6-3.9-9.6-9.3Z"/>
    <path class="st1" d="M250.6,81.3v18.2h-2.6v-8.1h-10.4v8.1h-2.6v-18.2h2.6v7.8h10.4v-7.8h2.6Z"/>
    <path class="st1" d="M275.4,81.3v18.2h-2.1l-10.9-13.6v13.6h-2.6v-18.2h2.1l10.9,13.6v-13.6h2.6Z"/>
    <path class="st1" d="M284.5,81.3h2.6v18.2h-2.6v-18.2Z"/>
    <path class="st1" d="M302.1,91.5l-3.3,3.4v4.7h-2.6v-18.2h2.6v10.2l9.9-10.2h3l-7.8,8.2,8.3,10h-3l-7-8.1Z"/>
  </g>
</svg>