<?xml version="1.0" encoding="UTF-8" standalone="no"?>
<svg
   id="Ebene_1"
   version="1.1"
   viewBox="0 0 514.90996 180.06225"
   sodipodi:docname="Mallonn_Fußballbanner.svg"
   width="514.90997"
   height="180.06226"
   inkscape:version="1.3.2 (1:1.3.2+202311252150+091e20ef0f)"
   inkscape:export-filename="Mallonn_Fußballbanner.png"
   inkscape:export-xdpi="96"
   inkscape:export-ydpi="96"
   xmlns:inkscape="http://www.inkscape.org/namespaces/inkscape"
   xmlns:sodipodi="http://sodipodi.sourceforge.net/DTD/sodipodi-0.dtd"
   xmlns="http://www.w3.org/2000/svg"
   xmlns:svg="http://www.w3.org/2000/svg">
  <sodipodi:namedview
     id="namedview23"
     pagecolor="#ffffff"
     bordercolor="#000000"
     borderopacity="0.25"
     inkscape:showpageshadow="2"
     inkscape:pageopacity="0.0"
     inkscape:pagecheckerboard="0"
     inkscape:deskcolor="#d1d1d1"
     inkscape:zoom="2.5059016"
     inkscape:cx="311.66428"
     inkscape:cy="105.55083"
     inkscape:window-width="3440"
     inkscape:window-height="1403"
     inkscape:window-x="1920"
     inkscape:window-y="0"
     inkscape:window-maximized="1"
     inkscape:current-layer="Ebene_1" />
  <!-- Generator: Adobe Illustrator 29.1.0, SVG Export Plug-In . SVG Version: 2.1.0 Build 142)  -->
  <defs
     id="defs1">
    <style
       id="style1">
      .st0 {
        fill: #d72226;
      }

      .st1 {
        fill: #f7f7f7;
      }
    </style>
  </defs>
  <rect
     style="font-variation-settings:normal;vector-effect:none;fill:#2c2c2c;fill-opacity:1;fill-rule:evenodd;stroke:#2c2c2c;stroke-width:1;stroke-linecap:butt;stroke-linejoin:miter;stroke-miterlimit:4;stroke-dasharray:none;stroke-dashoffset:0;stroke-opacity:1;-inkscape-stroke:none;stop-color:#000000"
     id="rect23-7"
     width="513.90997"
     height="179.06226"
     x="0.5"
     y="0.5" />
  <g
     id="g6"
     transform="translate(-34.54,1.58)">
    <polygon
       class="st0"
       points="192.4,99.2 192.4,67.9 169.3,82.8 169.3,99.2 "
       id="polygon1" />
    <polygon
       class="st0"
       points="95.3,99.2 95.3,82.8 72.2,67.9 72.2,99.2 "
       id="polygon2" />
    <polygon
       class="st0"
       points="192.4,61.3 135.6,98.3 135.6,75.2 192.4,38.2 "
       id="polygon3" />
    <polygon
       class="st0"
       points="129,98.3 72.2,61.3 72.2,38.2 129,75.2 "
       id="polygon4" />
    <polygon
       class="st0"
       points="132.3,70.7 132.3,63.9 181.9,31.5 192.4,31.5 "
       id="polygon5" />
    <polygon
       class="st0"
       points="132.3,70.7 72.2,31.5 82.7,31.5 132.3,63.9 "
       id="polygon6" />
  </g>
  <g
     id="g12"
     transform="translate(-24.55,1.51)">
    <path
       class="st1"
       d="M 263.2,68.6 V 46.4 c 0,0 -11,18.3 -11,18.3 h -3.9 L 237.4,46.9 v 21.8 h -8 V 31.5 h 7.1 l 13.9,23 13.7,-23 h 7 v 37.1 c 0.1,0 -7.9,0 -7.9,0 z"
       id="path6" />
    <path
       class="st1"
       d="m 304.1,60.7 h -17.2 l -3.3,7.9 h -8.8 l 16.5,-37.1 h 8.5 l 16.6,37.1 h -9 z m -2.7,-6.6 -5.9,-14.2 -5.9,14.2 z"
       id="path7" />
    <path
       class="st1"
       d="m 320.1,31.5 h 8.6 v 30.1 h 15.4 v 7 h -24 z"
       id="path8" />
    <path
       class="st1"
       d="m 349,31.5 h 8.6 v 30.1 h 12 l 6.6,7 H 349 Z"
       id="path9" />
    <path
       class="st1"
       d="m 372.7,50.1 c 0,-11 8.6,-19.2 20.3,-19.2 11.7,0 20.3,8.1 20.3,19.2 0,11.1 -8.6,19.2 -20.3,19.2 -11.7,0 -20.3,-8.2 -20.3,-19.2 z m 31.9,0 c 0,-7 -5,-11.9 -11.6,-11.9 -6.6,0 -11.6,4.8 -11.6,11.9 0,7.1 5,11.9 11.6,11.9 6.6,0 11.6,-4.8 11.6,-11.9 z"
       id="path10" />
    <path
       class="st1"
       d="m 451.7,31.5 v 37.1 h -7 L 426.2,46.1 v 22.5 h -8.5 V 31.5 h 7.1 L 443.2,54 V 31.5 Z"
       id="path11" />
    <path
       class="st1"
       d="m 491.9,31.5 v 37.1 h -7 L 466.4,46.1 v 22.5 h -8.5 V 31.5 H 465 L 483.4,54 V 31.5 Z"
       id="path12" />
  </g>
  <g
     id="g23"
     transform="translate(-24.56,4.67)">
    <path
       class="st0"
       d="m 229.4,80.9 h 7.7 c 5.8,0 9.8,3.7 9.8,9.1 0,5.4 -4,9.1 -9.8,9.1 h -7.7 z m 7.5,16 c 4.5,0 7.4,-2.8 7.4,-6.8 0,-4 -2.9,-6.8 -7.4,-6.8 H 232 V 97 h 4.9 z"
       id="path13" />
    <path
       class="st0"
       d="m 264.9,94.6 h -9.7 l -2,4.5 h -2.7 l 8.2,-18.2 h 2.6 l 8.3,18.2 h -2.7 z m -0.9,-2.1 -3.9,-8.9 -3.9,8.9 h 7.9 z"
       id="path14" />
    <path
       class="st0"
       d="m 273.3,90 c 0,-5.4 4.1,-9.3 9.6,-9.3 5.5,0 5.3,1 6.9,2.8 l -1.7,1.6 c -1.4,-1.5 -3.1,-2.2 -5.1,-2.2 -4.1,0 -7.1,3 -7.1,7 0,4 3,7 7.1,7 4.1,0 3.7,-0.7 5.1,-2.2 l 1.7,1.6 c -1.7,1.9 -4.1,2.9 -6.9,2.9 -5.5,0 -9.6,-3.9 -9.6,-9.3 z"
       id="path15" />
    <path
       class="st0"
       d="m 312.9,80.9 v 18.2 h -2.6 V 91 h -10.4 v 8.1 h -2.6 V 80.9 h 2.6 v 7.8 h 10.4 v -7.8 z"
       id="path16" />
    <path
       class="st0"
       d="m 325.6,83.2 h -6.2 v -2.3 h 15.1 v 2.3 h -6.2 v 15.9 h -2.6 V 83.2 Z"
       id="path17" />
    <path
       class="st0"
       d="m 354.1,96.9 v 2.3 H 340.9 V 81 h 12.8 v 2.3 h -10.2 v 5.6 h 9.1 v 2.2 h -9.1 V 97 h 10.6 z"
       id="path18" />
    <path
       class="st0"
       d="m 360.4,90 c 0,-5.4 4.1,-9.3 9.6,-9.3 5.5,0 5.3,1 6.9,2.8 l -1.7,1.6 c -1.4,-1.5 -3.1,-2.2 -5.1,-2.2 -4.1,0 -7.1,3 -7.1,7 0,4 3,7 7.1,7 4.1,0 3.7,-0.7 5.1,-2.2 l 1.7,1.6 c -1.7,1.9 -4.1,2.9 -6.9,2.9 -5.5,0 -9.6,-3.9 -9.6,-9.3 z"
       id="path19" />
    <path
       class="st0"
       d="m 399.9,80.9 v 18.2 h -2.6 V 91 h -10.4 v 8.1 h -2.6 V 80.9 h 2.6 v 7.8 h 10.4 v -7.8 z"
       id="path20" />
    <path
       class="st0"
       d="m 424.7,80.9 v 18.2 h -2.1 L 411.7,85.5 v 13.6 h -2.6 V 80.9 h 2.1 l 10.9,13.6 V 80.9 Z"
       id="path21" />
    <path
       class="st0"
       d="m 433.8,80.9 h 2.6 v 18.2 h -2.6 z"
       id="path22" />
    <path
       class="st0"
       d="m 451.4,91 -3.3,3.4 v 4.7 h -2.6 V 80.9 h 2.6 V 91.1 L 458,80.9 h 3 l -7.8,8.2 8.3,10 h -3 l -7,-8.1 z"
       id="path23" />
  </g>
  <text
     xml:space="preserve"
     style="font-style:italic;font-size:24px;font-family:Arial;-inkscape-font-specification:'Arial Italic';text-align:end;text-anchor:end;fill:#000000;fill-rule:evenodd;stroke:#000000;stroke-width:2.66667;stroke-opacity:0"
     x="187.86871"
     y="156.30598"
     id="text23-5"><tspan
       sodipodi:role="line"
       id="tspan23-6"
       x="187.86871"
       y="156.30598"
       style="font-style:normal;font-variant:normal;font-weight:bold;font-stretch:normal;font-size:24px;font-family:Arial;-inkscape-font-specification:'Arial Bold';fill:#ffffff">0170/5781360</tspan></text>
  <text
     xml:space="preserve"
     style="font-style:italic;font-size:24px;font-family:Arial;-inkscape-font-specification:'Arial Italic';text-align:end;text-anchor:end;fill:#000000;fill-rule:evenodd;stroke:#000000;stroke-width:2.66667;stroke-opacity:0"
     x="332.92084"
     y="156.3177"
     id="text23-2-9"><tspan
       sodipodi:role="line"
       id="tspan23-2-3"
       x="332.92084"
       y="156.3177"
       style="font-style:normal;font-variant:normal;font-weight:bold;font-stretch:normal;font-size:24px;font-family:Arial;-inkscape-font-specification:'Arial Bold';text-align:center;text-anchor:middle;fill:#ffffff">info@dach-mallonn.de</tspan></text>
</svg>
