<?xml version="1.0" encoding="UTF-8"?>
<svg id="Ebene_1" xmlns="http://www.w3.org/2000/svg" version="1.1" viewBox="0 0 307.6 307.6">
  <!-- Generator: Adobe Illustrator 29.1.0, SVG Export Plug-In . SVG Version: 2.1.0 Build 142)  -->
  <defs>
    <style>
      .st0 {
        fill: #d72226;
      }

      .st1 {
        fill: #f7f7f7;
      }
    </style>
  </defs>
  <g>
    <path class="st1" d="M82.7,225.5v-16.6s-8.2,13.7-8.2,13.7h-2.9l-8.1-13.3v16.2h-6v-27.6h5.3l10.3,17.2,10.2-17.2h5.3v27.6c0,0-5.9,0-5.9,0Z"/>
    <path class="st1" d="M113.3,219.6h-12.8l-2.4,5.9h-6.6l12.3-27.6h6.3l12.4,27.6h-6.7l-2.4-5.9ZM111.3,214.7l-4.4-10.6-4.4,10.6h8.8Z"/>
    <path class="st1" d="M125.2,197.9h6.4v22.4h11.5v5.2h-17.9v-27.6Z"/>
    <path class="st1" d="M146.7,197.8h6.4v22.4h9l4.9,5.2h-20.2v-27.6Z"/>
    <path class="st1" d="M164.4,211.7c0-8.2,6.4-14.3,15.1-14.3s15.1,6,15.1,14.3-6.4,14.3-15.1,14.3-15.1-6.1-15.1-14.3ZM188.1,211.7c0-5.3-3.7-8.8-8.6-8.8s-8.6,3.6-8.6,8.8,3.7,8.8,8.6,8.8,8.6-3.6,8.6-8.8Z"/>
    <path class="st1" d="M223.3,197.8v27.6h-5.3l-13.8-16.8v16.8h-6.3v-27.6h5.3l13.7,16.8v-16.8h6.3Z"/>
    <path class="st1" d="M253.2,197.8v27.6h-5.3l-13.8-16.8v16.8h-6.3v-27.6h5.3l13.7,16.8v-16.8h6.3Z"/>
  </g>
  <g>
    <path class="st0" d="M68.9,234.7h5.7c4.4,0,7.3,2.8,7.3,6.8s-3,6.8-7.3,6.8h-5.7v-13.6ZM74.5,246.6c3.4,0,5.5-2.1,5.5-5.1s-2.2-5.1-5.5-5.1h-3.7v10.2h3.7Z"/>
    <path class="st0" d="M95.4,244.9h-7.2l-1.5,3.4h-2l6.1-13.6h1.9l6.2,13.6h-2l-1.5-3.4ZM94.7,243.3l-2.9-6.6-2.9,6.6h5.9Z"/>
    <path class="st0" d="M101.6,241.5c0-4,3.1-6.9,7.2-6.9s3.9.7,5.2,2.1l-1.3,1.2c-1-1.1-2.3-1.6-3.8-1.6-3.1,0-5.3,2.2-5.3,5.2s2.3,5.2,5.3,5.2,2.8-.5,3.8-1.6l1.3,1.2c-1.2,1.4-3.1,2.1-5.2,2.1-4.1,0-7.2-2.9-7.2-6.9Z"/>
    <path class="st0" d="M131.1,234.7v13.6h-1.9v-6h-7.8v6h-1.9v-13.6h1.9v5.8h7.8v-5.8h1.9Z"/>
    <path class="st0" d="M140.6,236.4h-4.7v-1.7h11.2v1.7h-4.7v11.9h-1.9v-11.9Z"/>
    <path class="st0" d="M161.9,246.6v1.7h-9.8v-13.6h9.6v1.7h-7.6v4.2h6.8v1.6h-6.8v4.4h7.9Z"/>
    <path class="st0" d="M166.6,241.5c0-4,3.1-6.9,7.2-6.9s3.9.7,5.2,2.1l-1.3,1.2c-1-1.1-2.3-1.6-3.8-1.6-3.1,0-5.3,2.2-5.3,5.2s2.3,5.2,5.3,5.2,2.8-.5,3.8-1.6l1.3,1.2c-1.2,1.4-3.1,2.1-5.2,2.1-4.1,0-7.2-2.9-7.2-6.9Z"/>
    <path class="st0" d="M196.1,234.7v13.6h-1.9v-6h-7.8v6h-1.9v-13.6h1.9v5.8h7.8v-5.8h1.9Z"/>
    <path class="st0" d="M214.5,234.7v13.6h-1.6l-8.1-10.1v10.1h-1.9v-13.6h1.6l8.1,10.1v-10.1h1.9Z"/>
    <path class="st0" d="M221.3,234.7h1.9v13.6h-1.9v-13.6Z"/>
    <path class="st0" d="M234.4,242.2l-2.5,2.5v3.5h-1.9v-13.6h1.9v7.6l7.4-7.6h2.2l-5.8,6.1,6.2,7.5h-2.3l-5.2-6Z"/>
  </g>
  <g>
    <polygon class="st0" points="215.4 185.2 253.2 185.2 253.2 134 215.4 158.3 215.4 185.2"/>
    <polygon class="st0" points="56.2 185.2 94.1 185.2 94.1 158.3 56.2 134 56.2 185.2"/>
    <polygon class="st0" points="253.2 85.2 253.2 123.1 160.2 183.7 160.2 145.9 253.2 85.2"/>
    <polygon class="st0" points="149.3 145.9 149.3 183.7 56.2 123.1 56.2 85.2 149.3 145.9"/>
    <polygon class="st0" points="253.2 74.3 154.7 138.6 154.7 127.4 236 74.3 253.2 74.3"/>
    <polygon class="st0" points="154.7 127.4 154.7 138.6 56.2 74.3 73.4 74.3 154.7 127.4"/>
  </g>
</svg>